<svg aria-roledescription="er" role="graphics-document document" viewBox="-20 -61.296875 1376.4375 701.296875" style="max-width: 1376.4375px;" xmlns="http://www.w3.org/2000/svg" width="100%" id="export-svg"><style xmlns="http://www.w3.org/1999/xhtml">@import url("https://cdnjs.cloudflare.com/ajax/libs/font-awesome/6.2.0/css/all.min.css"); p {margin: 0;}</style><style>#export-svg{font-family:"trebuchet ms",verdana,arial,sans-serif;font-size:14px;fill:#333;}#export-svg .error-icon{fill:#552222;}#export-svg .error-text{fill:#552222;stroke:#552222;}#export-svg .edge-thickness-normal{stroke-width:1px;}#export-svg .edge-thickness-thick{stroke-width:3.5px;}#export-svg .edge-pattern-solid{stroke-dasharray:0;}#export-svg .edge-thickness-invisible{stroke-width:0;fill:none;}#export-svg .edge-pattern-dashed{stroke-dasharray:3;}#export-svg .edge-pattern-dotted{stroke-dasharray:2;}#export-svg .marker{fill:#333333;stroke:#333333;}#export-svg .marker.cross{stroke:#333333;}#export-svg svg{font-family:"trebuchet ms",verdana,arial,sans-serif;font-size:14px;}#export-svg p{margin:0;}#export-svg .entityBox{fill:#ECECFF;stroke:#9370DB;}#export-svg .attributeBoxOdd{fill:#ffffff;stroke:#9370DB;}#export-svg .attributeBoxEven{fill:#f2f2f2;stroke:#9370DB;}#export-svg .relationshipLabelBox{fill:hsl(80, 100%, 96.2745098039%);opacity:0.7;background-color:hsl(80, 100%, 96.2745098039%);}#export-svg .relationshipLabelBox rect{opacity:0.5;}#export-svg .relationshipLine{stroke:#333333;}#export-svg .entityTitleText{text-anchor:middle;font-size:18px;fill:#333;}#export-svg #MD_PARENT_START{fill:#f5f5f5!important;stroke:#333333!important;stroke-width:1;}#export-svg #MD_PARENT_END{fill:#f5f5f5!important;stroke:#333333!important;stroke-width:1;}#export-svg .node .neo-node{stroke:#9370DB;}#export-svg [data-look="neo"].node rect,#export-svg [data-look="neo"].cluster rect,#export-svg [data-look="neo"].node polygon{stroke:#9370DB;filter:drop-shadow( 1px 2px 2px rgba(185,185,185,1));}#export-svg [data-look="neo"].node rect,#export-svg [data-look="neo"].node polygon,#export-svg [data-look="neo"].node path{stroke:none;filter:drop-shadow( 1px 2px 2px rgba(185,185,185,1));}#export-svg [data-look="neo"].node .neo-line path{stroke:hsl(240, 60%, 86.2745098039%);filter:none;}#export-svg [data-look="neo"].node circle{stroke:#9370DB;filter:drop-shadow( 1px 2px 2px rgba(185,185,185,1));}#export-svg [data-look="neo"].node circle .state-start{fill:#000000;}#export-svg [data-look="neo"].statediagram-cluster rect{fill:#ECECFF;stroke:#9370DB;stroke-width:1px;}#export-svg [data-look="neo"].icon-shape .icon{fill:#9370DB;filter:drop-shadow( 1px 2px 2px rgba(185,185,185,1));}#export-svg [data-look="neo"].icon-shape .icon-neo path{stroke:#9370DB;filter:drop-shadow( 1px 2px 2px rgba(185,185,185,1));}#export-svg [id^=entity-DLMMPnLv4gainsbyposition] .er.entityBox{fill:powderblue;}#export-svg :root{--mermaid-font-family:"trebuchet ms",verdana,arial,sans-serif;}</style><g/><defs><marker orient="auto" markerHeight="240" markerWidth="190" refY="7" refX="0" id="MD_PARENT_START"><path d="M 18,7 L9,13 L1,7 L9,1 Z"/></marker></defs><defs><marker orient="auto" markerHeight="28" markerWidth="20" refY="7" refX="19" id="MD_PARENT_END"><path d="M 18,7 L9,13 L1,7 L9,1 Z"/></marker></defs><defs><marker orient="auto" markerHeight="18" markerWidth="18" refY="9" refX="0" id="ONLY_ONE_START"><path d="M9,0 L9,18 M15,0 L15,18" fill="none" stroke="gray"/></marker></defs><defs><marker orient="auto" markerHeight="18" markerWidth="18" refY="9" refX="18" id="ONLY_ONE_END"><path d="M3,0 L3,18 M9,0 L9,18" fill="none" stroke="gray"/></marker></defs><defs><marker orient="auto" markerHeight="18" markerWidth="30" refY="9" refX="0" id="ZERO_OR_ONE_START"><circle r="6" cy="9" cx="21" fill="white" stroke="gray"/><path d="M9,0 L9,18" fill="none" stroke="gray"/></marker></defs><defs><marker orient="auto" markerHeight="18" markerWidth="30" refY="9" refX="30" id="ZERO_OR_ONE_END"><circle r="6" cy="9" cx="9" fill="white" stroke="gray"/><path d="M21,0 L21,18" fill="none" stroke="gray"/></marker></defs><defs><marker orient="auto" markerHeight="36" markerWidth="45" refY="18" refX="18" id="ONE_OR_MORE_START"><path d="M0,18 Q 18,0 36,18 Q 18,36 0,18 M42,9 L42,27" fill="none" stroke="gray"/></marker></defs><defs><marker orient="auto" markerHeight="36" markerWidth="45" refY="18" refX="27" id="ONE_OR_MORE_END"><path d="M3,9 L3,27 M9,18 Q27,0 45,18 Q27,36 9,18" fill="none" stroke="gray"/></marker></defs><defs><marker orient="auto" markerHeight="36" markerWidth="57" refY="18" refX="18" id="ZERO_OR_MORE_START"><circle r="6" cy="18" cx="48" fill="white" stroke="gray"/><path d="M0,18 Q18,0 36,18 Q18,36 0,18" fill="none" stroke="gray"/></marker></defs><defs><marker orient="auto" markerHeight="36" markerWidth="57" refY="18" refX="39" id="ZERO_OR_MORE_END"><circle r="6" cy="18" cx="9" fill="white" stroke="gray"/><path d="M21,18 Q39,0 57,18 Q39,36 21,18" fill="none" stroke="gray"/></marker></defs><path marker-start="url(#ONLY_ONE_START)" marker-end="url(#ONLY_ONE_END)" style="stroke: gray; fill: none;" d="M778.266,69.595L669.453,82.162C560.641,94.73,343.016,119.865,234.203,140.766C125.391,161.667,125.391,178.333,125.391,186.667L125.391,195" class="er relationshipLine"/><path marker-start="url(#ONLY_ONE_START)" marker-end="url(#ONLY_ONE_END)" style="stroke: gray; fill: none;" d="M175.391,445L175.391,453.333C175.391,461.667,175.391,478.333,213.51,496.086C251.63,513.839,327.87,532.677,365.99,542.097L404.109,551.516" class="er relationshipLine"/><path marker-start="url(#ONLY_ONE_START)" marker-end="url(#ZERO_OR_MORE_END)" style="stroke: gray; fill: none;" d="M125.391,270L125.391,278.333C125.391,286.667,125.391,303.333,130.153,320C134.914,336.667,144.438,353.333,149.2,361.667L153.962,370" class="er relationshipLine"/><path marker-start="url(#ONLY_ONE_START)" marker-end="url(#ZERO_OR_MORE_END)" style="stroke: gray; fill: none;" d="M433.504,270L411.801,278.333C390.097,286.667,346.689,303.333,312.805,320C278.921,336.667,254.561,353.333,242.381,361.667L230.201,370" class="er relationshipLine"/><path marker-start="url(#ONLY_ONE_START)" marker-end="url(#ZERO_OR_MORE_END)" style="stroke: gray; fill: none;" d="M531.172,270L531.172,278.333C531.172,286.667,531.172,303.333,531.172,320C531.172,336.667,531.172,353.333,531.172,361.667L531.172,370" class="er relationshipLine"/><path marker-start="url(#ONLY_ONE_START)" marker-end="url(#ZERO_OR_MORE_END)" style="stroke: gray; fill: none;" d="M634.219,262.952L666.393,272.46C698.568,281.968,762.917,300.984,795.091,318.825C827.266,336.667,827.266,353.333,827.266,361.667L827.266,370" class="er relationshipLine"/><path marker-start="url(#ONLY_ONE_START)" marker-end="url(#ZERO_OR_MORE_END)" style="stroke: gray; fill: none;" d="M882.984,95L882.984,103.333C882.984,111.667,882.984,128.333,882.984,145C882.984,161.667,882.984,178.333,882.984,186.667L882.984,195" class="er relationshipLine"/><path marker-start="url(#ONLY_ONE_START)" marker-end="url(#ZERO_OR_MORE_END)" style="stroke: gray; fill: none;" d="M987.703,86.792L1022.385,96.493C1057.068,106.195,1126.432,125.597,1161.115,143.632C1195.797,161.667,1195.797,178.333,1195.797,186.667L1195.797,195" class="er relationshipLine"/><path marker-start="url(#ONLY_ONE_START)" marker-end="url(#ZERO_OR_ONE_END)" style="stroke: gray; fill: none;" d="M1179.703,445L1179.703,453.333C1179.703,461.667,1179.703,478.333,1092.234,498.438C1004.766,518.542,829.828,542.084,742.359,553.855L654.891,565.626" class="er relationshipLine"/><g transform="translate(778.265625,20 )" id="entity-TokenPrices1MinuteResolution-9c264ec0-f0f1-5aec-ab37-c9c79d160380"><rect height="75" width="209.4375" y="0" x="0" class="er entityBox"/><text transform="translate(104.71875,37.5)" style="dominant-baseline: middle; text-anchor: middle; font-size: 12px;" y="0" x="0" id="text-entity-TokenPrices1MinuteResolution-9c264ec0-f0f1-5aec-ab37-c9c79d160380" class="er entityLabel">Token Prices 1 Minute Resolution</text></g><g transform="translate(34.6875,195 )" id="entity-DLMMPnLv4tokenprices-21b87c83-ceb5-5f60-96b6-6e311c17b72f"><rect height="75" width="181.40625" y="0" x="0" class="er entityBox"/><text transform="translate(90.703125,37.5)" style="dominant-baseline: middle; text-anchor: middle; font-size: 12px;" y="0" x="0" id="text-entity-DLMMPnLv4tokenprices-21b87c83-ceb5-5f60-96b6-6e311c17b72f" class="er entityLabel">DLMM PnL v4 - token prices</text></g><g transform="translate(20,370 )" id="entity-DLMMPnLv4realizedpositionsactionswithprices-5ff8e6eb-a882-5586-8362-e2467decbf6e"><rect height="75" width="310.78125" y="0" x="0" class="er entityBox"/><text transform="translate(155.390625,37.5)" style="dominant-baseline: middle; text-anchor: middle; font-size: 12px;" y="0" x="0" id="text-entity-DLMMPnLv4realizedpositionsactionswithprices-5ff8e6eb-a882-5586-8362-e2467decbf6e" class="er entityLabel">DLMM PnL v4 - realized positions actions with prices</text></g><g transform="translate(404.109375,545 )" id="entity-DLMMPnLv4realizedpositionsactions-86f50f8e-ac74-50a1-9ff3-b442c85630de"><rect height="75" width="250.78125" y="0" x="0" class="er entityBox"/><text transform="translate(125.390625,37.5)" style="dominant-baseline: middle; text-anchor: middle; font-size: 12px;" y="0" x="0" id="text-entity-DLMMPnLv4realizedpositionsactions-86f50f8e-ac74-50a1-9ff3-b442c85630de" class="er entityLabel">DLMM PnL v4 - realized positions actions</text></g><g transform="translate(428.125,195 )" id="entity-DLMMPnLv4gainsbyposition-42977b30-4a15-5f3f-bf42-fd0564ee99fe"><rect height="75" width="206.09375" y="0" x="0" class="er entityBox"/><text transform="translate(103.046875,37.5)" style="dominant-baseline: middle; text-anchor: middle; font-size: 12px;" y="0" x="0" id="text-entity-DLMMPnLv4gainsbyposition-42977b30-4a15-5f3f-bf42-fd0564ee99fe" class="er entityLabel">DLMM PnL v4 - gains by position</text></g><g transform="translate(430.78125,370 )" id="entity-spltokencalltransferChecked-c55080d3-9e2b-5783-89c9-73bdaf803b5f"><rect height="75" width="200.78125" y="0" x="0" class="er entityBox"/><text transform="translate(100.390625,37.5)" style="dominant-baseline: middle; text-anchor: middle; font-size: 12px;" y="0" x="0" id="text-entity-spltokencalltransferChecked-c55080d3-9e2b-5783-89c9-73bdaf803b5f" class="er entityLabel">spl_token_call_transferChecked</text></g><g transform="translate(731.5625,370 )" id="entity-lbclmmcallinitializePosition-03c7e7e9-ca9f-513e-b792-70109bf9d109"><rect height="75" width="191.40625" y="0" x="0" class="er entityBox"/><text transform="translate(95.703125,37.5)" style="dominant-baseline: middle; text-anchor: middle; font-size: 12px;" y="0" x="0" id="text-entity-lbclmmcallinitializePosition-03c7e7e9-ca9f-513e-b792-70109bf9d109" class="er entityLabel">lb_clmm_call_initializePosition</text></g><g transform="translate(734.21875,195 )" id="entity-spltokensolanaspltokencalltransferChecked-e906e5a1-0be4-52c9-9681-723722df8c9d"><rect height="75" width="297.53125" y="0" x="0" class="er entityBox"/><text transform="translate(148.765625,37.5)" style="dominant-baseline: middle; text-anchor: middle; font-size: 12px;" y="0" x="0" id="text-entity-spltokensolanaspltokencalltransferChecked-e906e5a1-0be4-52c9-9681-723722df8c9d" class="er entityLabel">spl_token_solana.spl_token_call_transferChecked</text></g><g transform="translate(1131.75,195 )" id="entity-dexsolanatrades-33c6a8ea-1935-5d16-84fb-f9fac9fbee22"><rect height="75" width="128.09375" y="0" x="0" class="er entityBox"/><text transform="translate(64.046875,37.5)" style="dominant-baseline: middle; text-anchor: middle; font-size: 12px;" y="0" x="0" id="text-entity-dexsolanatrades-33c6a8ea-1935-5d16-84fb-f9fac9fbee22" class="er entityLabel">dex_solana.trades</text></g><g transform="translate(1022.96875,370 )" id="entity-dlmmsolanalbclmmcalladdremoveclaimclose-cd834e34-018b-523a-aa9d-89a699e2d106"><rect height="75" width="313.46875" y="0" x="0" class="er entityBox"/><text transform="translate(156.734375,37.5)" style="dominant-baseline: middle; text-anchor: middle; font-size: 12px;" y="0" x="0" id="text-entity-dlmmsolanalbclmmcalladdremoveclaimclose-cd834e34-018b-523a-aa9d-89a699e2d106" class="er entityLabel">dlmm_solana.lb_clmm_call_[add,remove,claim,close]</text></g><rect height="0" width="0" y="109.82624053955078" x="440.3077087402344" class="er relationshipLabelBox"/><text style="text-anchor: middle; dominant-baseline: middle; font-size: 12px;" y="109.82624053955078" x="440.3077087402344" id="rel3673" class="er relationshipLabel"/><rect height="0" width="0" y="517.7708129882812" x="274.4541931152344" class="er relationshipLabelBox"/><text style="text-anchor: middle; dominant-baseline: middle; font-size: 12px;" y="517.7708129882812" x="274.4541931152344" id="rel3674" class="er relationshipLabel"/><rect height="0" width="0" y="322.4471130371094" x="130.88580322265625" class="er relationshipLabelBox"/><text style="text-anchor: middle; dominant-baseline: middle; font-size: 12px;" y="322.4471130371094" x="130.88580322265625" id="rel3675" class="er relationshipLabel"/><rect height="0" width="0" y="312.7172546386719" x="328.181640625" class="er relationshipLabelBox"/><text style="text-anchor: middle; dominant-baseline: middle; font-size: 12px;" y="312.7172546386719" x="328.181640625" id="rel3676" class="er relationshipLabel"/><rect height="0" width="0" y="320" x="531.1719970703125" class="er relationshipLabelBox"/><text style="text-anchor: middle; dominant-baseline: middle; font-size: 12px;" y="320" x="531.1719970703125" id="rel3677" class="er relationshipLabel"/><rect height="0" width="0" y="298.06158447265625" x="746.6185913085938" class="er relationshipLabelBox"/><text style="text-anchor: middle; dominant-baseline: middle; font-size: 12px;" y="298.06158447265625" x="746.6185913085938" id="rel3678" class="er relationshipLabel"/><rect height="13.421875" width="136.75" y="138.2890625" x="814.6090087890625" class="er relationshipLabelBox"/><text style="text-anchor: middle; dominant-baseline: middle; font-size: 12px;" y="145" x="882.9840087890625" id="rel3679" class="er relationshipLabel">determine token decimals</text><rect height="13.421875" width="35.359375" y="115.37371826171875" x="1089.7308349609375" class="er relationshipLabelBox"/><text style="text-anchor: middle; dominant-baseline: middle; font-size: 12px;" y="122.08465576171875" x="1107.4105224609375" id="rel3680" class="er relationshipLabel">pricing</text><rect height="0" width="0" y="527.41015625" x="929.5842895507812" class="er relationshipLabelBox"/><text style="text-anchor: middle; dominant-baseline: middle; font-size: 12px;" y="527.41015625" x="929.5842895507812" id="rel3681" class="er relationshipLabel"/><text class="entityTitleText" y="-25" x="668.21875" text-anchor="middle">DLMM PnL calculation</text></svg>